<svg width="24" height="24" viewBox="0 0 24 24" fill="none" xmlns="http://www.w3.org/2000/svg">
<g id="Extra Icons">
<path id="Vector" d="M18.654 17.5951L21.5835 20.5231C21.7201 20.6646 21.7957 20.854 21.794 21.0507C21.7923 21.2473 21.7134 21.4354 21.5744 21.5745C21.4353 21.7135 21.2472 21.7924 21.0506 21.7941C20.8539 21.7958 20.6645 21.7202 20.523 21.5836L17.5935 18.6541C15.6791 20.2943 13.2039 21.1292 10.6872 20.9838C8.17053 20.8383 5.808 19.7237 4.09537 17.8739C2.38275 16.024 1.45317 13.5828 1.50169 11.0624C1.5502 8.54193 2.57305 6.13825 4.35559 4.35571C6.13813 2.57317 8.54181 1.55032 11.0622 1.50181C13.5827 1.45329 16.0239 2.38287 17.8737 4.0955C19.7236 5.80812 20.8382 8.17065 20.9836 10.6873C21.1291 13.204 20.2942 15.6793 18.654 17.5936V17.5951ZM11.25 19.5001C13.438 19.5001 15.5365 18.6309 17.0836 17.0838C18.6308 15.5366 19.5 13.4382 19.5 11.2501C19.5 9.06209 18.6308 6.96367 17.0836 5.41649C15.5365 3.86932 13.438 3.00012 11.25 3.00012C9.06196 3.00012 6.96354 3.86932 5.41637 5.41649C3.86919 6.96367 3 9.06209 3 11.2501C3 13.4382 3.86919 15.5366 5.41637 17.0838C6.96354 18.6309 9.06196 19.5001 11.25 19.5001Z" fill="black"/>
</g>
</svg>
